<mxfile host="Electron" modified="2023-08-14T21:10:16.678Z" agent="Mozilla/5.0 (Macintosh; Intel Mac OS X 10_15_7) AppleWebKit/537.36 (KHTML, like Gecko) draw.io/21.6.8 Chrome/114.0.5735.289 Electron/25.5.0 Safari/537.36" etag="qSFlSSzBQjjtF_-iwf9s" version="21.6.8" type="device">
  <diagram name="Page-1" id="dtkTwhtDY3SrjnRo8XkO">
    <mxGraphModel dx="1590" dy="1923" grid="1" gridSize="10" guides="1" tooltips="1" connect="1" arrows="1" fold="1" page="0" pageScale="1" pageWidth="827" pageHeight="1169" math="0" shadow="0">
      <root>
        <mxCell id="0" />
        <mxCell id="1" parent="0" />
        <mxCell id="lJstjDnfzTnsdC9-dKv9-14" value="&lt;font style=&quot;&quot;&gt;Muscle_meq_qc()&lt;br&gt;&lt;/font&gt;" style="text;html=1;align=center;verticalAlign=middle;resizable=0;points=[];autosize=1;strokeColor=none;fillColor=none;fontSize=18;fontFamily=Helvetica;" parent="1" vertex="1">
          <mxGeometry x="505" y="-540" width="170" height="40" as="geometry" />
        </mxCell>
        <mxCell id="VmBpd-jAXGRa_ZSsbWtE-30" style="edgeStyle=orthogonalEdgeStyle;rounded=0;orthogonalLoop=1;jettySize=auto;html=1;entryX=0.25;entryY=0;entryDx=0;entryDy=0;" parent="1" source="yhwz2y4raJEEbXIZIOFM-8" target="VmBpd-jAXGRa_ZSsbWtE-28" edge="1">
          <mxGeometry relative="1" as="geometry" />
        </mxCell>
        <mxCell id="VmBpd-jAXGRa_ZSsbWtE-31" value="Flase" style="edgeLabel;html=1;align=center;verticalAlign=middle;resizable=0;points=[];" parent="VmBpd-jAXGRa_ZSsbWtE-30" vertex="1" connectable="0">
          <mxGeometry x="-0.0871" y="2" relative="1" as="geometry">
            <mxPoint as="offset" />
          </mxGeometry>
        </mxCell>
        <mxCell id="yhwz2y4raJEEbXIZIOFM-8" value="Power line (50, 60 Hz) &lt;br&gt;noise present?" style="rhombus;whiteSpace=wrap;html=1;fontSize=12;" parent="1" vertex="1">
          <mxGeometry x="490" y="-60" width="220" height="120" as="geometry" />
        </mxCell>
        <mxCell id="yhwz2y4raJEEbXIZIOFM-16" value="" style="endArrow=classic;html=1;rounded=0;fontSize=12;exitX=1;exitY=0.5;exitDx=0;exitDy=0;entryX=0.5;entryY=0;entryDx=0;entryDy=0;" parent="1" source="yhwz2y4raJEEbXIZIOFM-8" target="VmBpd-jAXGRa_ZSsbWtE-13" edge="1">
          <mxGeometry relative="1" as="geometry">
            <mxPoint x="580" y="420" as="sourcePoint" />
            <mxPoint x="790" y="60" as="targetPoint" />
            <Array as="points">
              <mxPoint x="820" />
            </Array>
          </mxGeometry>
        </mxCell>
        <mxCell id="yhwz2y4raJEEbXIZIOFM-17" value="True" style="edgeLabel;resizable=0;html=1;align=center;verticalAlign=middle;fontSize=12;" parent="yhwz2y4raJEEbXIZIOFM-16" connectable="0" vertex="1">
          <mxGeometry relative="1" as="geometry">
            <mxPoint x="15" y="20" as="offset" />
          </mxGeometry>
        </mxCell>
        <mxCell id="VmBpd-jAXGRa_ZSsbWtE-4" style="edgeStyle=orthogonalEdgeStyle;rounded=0;orthogonalLoop=1;jettySize=auto;html=1;" parent="1" source="VmBpd-jAXGRa_ZSsbWtE-1" target="yhwz2y4raJEEbXIZIOFM-8" edge="1">
          <mxGeometry relative="1" as="geometry" />
        </mxCell>
        <mxCell id="VmBpd-jAXGRa_ZSsbWtE-1" value="Input:&lt;br&gt;&lt;br&gt;Raw data,&amp;nbsp;&lt;br&gt;Config parameters &lt;br&gt;(Muscle + PSD)&lt;br&gt;" style="html=1;" parent="1" vertex="1">
          <mxGeometry x="150" y="-50" width="200" height="100" as="geometry" />
        </mxCell>
        <mxCell id="oMiTmnscvnVRxevsy5Wp-2" value="" style="edgeStyle=orthogonalEdgeStyle;rounded=0;orthogonalLoop=1;jettySize=auto;html=1;" parent="1" source="VmBpd-jAXGRa_ZSsbWtE-2" target="oMiTmnscvnVRxevsy5Wp-1" edge="1">
          <mxGeometry relative="1" as="geometry" />
        </mxCell>
        <mxCell id="VmBpd-jAXGRa_ZSsbWtE-2" value="" style="ellipse;fillColor=strokeColor;" parent="1" vertex="1">
          <mxGeometry x="585" y="-465" width="30" height="30" as="geometry" />
        </mxCell>
        <mxCell id="VmBpd-jAXGRa_ZSsbWtE-10" value="" style="group" parent="1" vertex="1" connectable="0">
          <mxGeometry x="700" y="40" width="240" height="100" as="geometry" />
        </mxCell>
        <mxCell id="VmBpd-jAXGRa_ZSsbWtE-11" value="Filter out noise and its harmonics&lt;br&gt;&lt;br&gt;&lt;i&gt;&lt;b&gt;mne.notch_filter()&lt;/b&gt;&lt;/i&gt;" style="html=1;align=center;verticalAlign=middle;rounded=1;absoluteArcSize=1;arcSize=25;dashed=0;fontFamily=Helvetica;fontSize=12;whiteSpace=wrap;container=0;noLabel=0;imageAlign=center;" parent="VmBpd-jAXGRa_ZSsbWtE-10" vertex="1">
          <mxGeometry y="10" width="240" height="80" as="geometry" />
        </mxCell>
        <mxCell id="VmBpd-jAXGRa_ZSsbWtE-12" value="pinOut 2" style="fontStyle=0;labelPosition=center;verticalLabelPosition=bottom;align=center;verticalAlign=top;spacingLeft=2;fontFamily=Helvetica;fontSize=12;resizable=0;container=0;noLabel=1;" parent="VmBpd-jAXGRa_ZSsbWtE-10" vertex="1">
          <mxGeometry x="105" y="90" width="30" height="10" as="geometry" />
        </mxCell>
        <mxCell id="VmBpd-jAXGRa_ZSsbWtE-13" value="pinIn 1" style="fontStyle=0;labelPosition=center;verticalLabelPosition=top;align=center;verticalAlign=bottom;spacingLeft=2;fontFamily=Helvetica;fontSize=12;resizable=0;container=0;noLabel=1;" parent="VmBpd-jAXGRa_ZSsbWtE-10" vertex="1">
          <mxGeometry x="105" width="30" height="10" as="geometry" />
        </mxCell>
        <mxCell id="VmBpd-jAXGRa_ZSsbWtE-14" style="edgeStyle=orthogonalEdgeStyle;rounded=0;orthogonalLoop=1;jettySize=auto;html=1;entryX=0.75;entryY=0;entryDx=0;entryDy=0;exitX=0.5;exitY=1;exitDx=0;exitDy=0;" parent="1" source="VmBpd-jAXGRa_ZSsbWtE-12" target="VmBpd-jAXGRa_ZSsbWtE-28" edge="1">
          <mxGeometry relative="1" as="geometry">
            <mxPoint x="640.8399999999999" y="187.97000000000003" as="targetPoint" />
            <Array as="points">
              <mxPoint x="820" y="150" />
              <mxPoint x="618" y="150" />
            </Array>
          </mxGeometry>
        </mxCell>
        <mxCell id="VmBpd-jAXGRa_ZSsbWtE-25" value="" style="group" parent="1" vertex="1" connectable="0">
          <mxGeometry x="490" y="180" width="240" height="100" as="geometry" />
        </mxCell>
        <mxCell id="VmBpd-jAXGRa_ZSsbWtE-26" value="Detect high frequency (muscle) artifacts&lt;b&gt;&lt;i&gt;&lt;br&gt;&lt;br&gt;mne.&lt;/i&gt;&lt;/b&gt;&lt;span style=&quot;border-color: var(--border-color); font-weight: 700; background-color: initial;&quot;&gt;preprocessing.&lt;/span&gt;&lt;span style=&quot;border-color: var(--border-color); font-weight: 700; background-color: initial;&quot;&gt;annotate_&lt;br&gt;muscle_zscore()&lt;/span&gt;" style="html=1;align=center;verticalAlign=middle;rounded=1;absoluteArcSize=1;arcSize=25;dashed=0;fontFamily=Helvetica;fontSize=12;whiteSpace=wrap;container=0;noLabel=0;imageAlign=center;" parent="VmBpd-jAXGRa_ZSsbWtE-25" vertex="1">
          <mxGeometry y="10" width="240" height="80" as="geometry" />
        </mxCell>
        <mxCell id="VmBpd-jAXGRa_ZSsbWtE-27" value="pinOut 2" style="fontStyle=0;labelPosition=center;verticalLabelPosition=bottom;align=center;verticalAlign=top;spacingLeft=2;fontFamily=Helvetica;fontSize=12;resizable=0;container=0;noLabel=1;" parent="VmBpd-jAXGRa_ZSsbWtE-25" vertex="1">
          <mxGeometry x="105" y="90" width="30" height="10" as="geometry" />
        </mxCell>
        <mxCell id="VmBpd-jAXGRa_ZSsbWtE-28" value="pinIn 1" style="fontStyle=0;labelPosition=center;verticalLabelPosition=top;align=center;verticalAlign=bottom;spacingLeft=2;fontFamily=Helvetica;fontSize=12;resizable=0;container=0;noLabel=1;" parent="VmBpd-jAXGRa_ZSsbWtE-25" vertex="1">
          <mxGeometry x="105" width="30" height="10" as="geometry" />
        </mxCell>
        <mxCell id="VmBpd-jAXGRa_ZSsbWtE-37" value="" style="edgeStyle=orthogonalEdgeStyle;rounded=0;orthogonalLoop=1;jettySize=auto;html=1;" parent="1" source="VmBpd-jAXGRa_ZSsbWtE-27" edge="1">
          <mxGeometry relative="1" as="geometry">
            <mxPoint x="610" y="310" as="targetPoint" />
          </mxGeometry>
        </mxCell>
        <mxCell id="VmBpd-jAXGRa_ZSsbWtE-42" value="" style="edgeStyle=orthogonalEdgeStyle;rounded=0;orthogonalLoop=1;jettySize=auto;html=1;" parent="1" edge="1">
          <mxGeometry relative="1" as="geometry">
            <mxPoint x="610" y="410" as="sourcePoint" />
            <mxPoint x="610" y="450" as="targetPoint" />
          </mxGeometry>
        </mxCell>
        <mxCell id="VmBpd-jAXGRa_ZSsbWtE-43" value="" style="group;flipH=1;" parent="1" vertex="1" connectable="0">
          <mxGeometry x="480" y="310" width="250" height="100" as="geometry" />
        </mxCell>
        <mxCell id="VmBpd-jAXGRa_ZSsbWtE-44" value="Find number and time artifacts above z score threshold(s)&amp;nbsp;&lt;b style=&quot;border-color: var(--border-color);&quot;&gt;&lt;i style=&quot;border-color: var(--border-color);&quot;&gt;&lt;br style=&quot;border-color: var(--border-color);&quot;&gt;&lt;br style=&quot;border-color: var(--border-color);&quot;&gt;&lt;/i&gt;&lt;/b&gt;&lt;b&gt;&lt;span style=&quot;border-color: var(--border-color);&quot;&gt;find_peaks&lt;/span&gt;()&lt;/b&gt;" style="html=1;align=center;verticalAlign=middle;rounded=1;absoluteArcSize=1;arcSize=25;dashed=0;fontFamily=Helvetica;fontSize=12;whiteSpace=wrap;container=0;noLabel=0;imageAlign=center;" parent="VmBpd-jAXGRa_ZSsbWtE-43" vertex="1">
          <mxGeometry x="10" y="10" width="240" height="80" as="geometry" />
        </mxCell>
        <mxCell id="VmBpd-jAXGRa_ZSsbWtE-45" value="pinOut 2" style="fontStyle=0;labelPosition=center;verticalLabelPosition=bottom;align=center;verticalAlign=top;spacingLeft=2;fontFamily=Helvetica;fontSize=12;resizable=0;container=0;noLabel=1;" parent="VmBpd-jAXGRa_ZSsbWtE-43" vertex="1">
          <mxGeometry x="115" y="90" width="30" height="10" as="geometry" />
        </mxCell>
        <mxCell id="VmBpd-jAXGRa_ZSsbWtE-46" value="pinOut 1" style="fontStyle=0;labelPosition=right;verticalLabelPosition=middle;align=left;verticalAlign=middle;spacingLeft=2;fontFamily=Helvetica;fontSize=12;resizable=0;container=0;noLabel=1;" parent="VmBpd-jAXGRa_ZSsbWtE-43" vertex="1">
          <mxGeometry y="35" width="10" height="30" as="geometry" />
        </mxCell>
        <mxCell id="VmBpd-jAXGRa_ZSsbWtE-47" value="pinIn 1" style="fontStyle=0;labelPosition=center;verticalLabelPosition=top;align=center;verticalAlign=bottom;spacingLeft=2;fontFamily=Helvetica;fontSize=12;resizable=0;container=0;noLabel=1;" parent="VmBpd-jAXGRa_ZSsbWtE-43" vertex="1">
          <mxGeometry x="115" width="30" height="10" as="geometry" />
        </mxCell>
        <mxCell id="VmBpd-jAXGRa_ZSsbWtE-52" value="" style="group;flipH=1;flipV=0;" parent="1" vertex="1" connectable="0">
          <mxGeometry x="490" y="450" width="250" height="90" as="geometry" />
        </mxCell>
        <mxCell id="VmBpd-jAXGRa_ZSsbWtE-53" value="&lt;span style=&quot;border-color: var(--border-color);&quot;&gt;Plot time and z score&amp;nbsp;artifacts over the&amp;nbsp;whole time series&lt;br style=&quot;border-color: var(--border-color);&quot;&gt;&lt;b style=&quot;border-color: var(--border-color);&quot;&gt;&lt;i style=&quot;border-color: var(--border-color);&quot;&gt;plot_muscle_artifacts()&lt;/i&gt;&lt;/b&gt;&lt;br&gt;&lt;/span&gt;" style="html=1;align=center;verticalAlign=middle;rounded=1;absoluteArcSize=1;arcSize=25;dashed=0;fontFamily=Helvetica;fontSize=12;whiteSpace=wrap;container=0;noLabel=0;imageAlign=center;" parent="VmBpd-jAXGRa_ZSsbWtE-52" vertex="1">
          <mxGeometry y="10" width="240" height="80" as="geometry" />
        </mxCell>
        <mxCell id="VmBpd-jAXGRa_ZSsbWtE-54" value="pinIn 2" style="fontStyle=0;labelPosition=left;verticalLabelPosition=middle;align=right;verticalAlign=middle;spacingLeft=2;fontFamily=Helvetica;fontSize=12;flipH=0;resizable=0;container=0;noLabel=1;" parent="VmBpd-jAXGRa_ZSsbWtE-52" vertex="1">
          <mxGeometry x="240" y="35" width="10" height="30" as="geometry" />
        </mxCell>
        <mxCell id="VmBpd-jAXGRa_ZSsbWtE-55" value="pinIn 1" style="fontStyle=0;labelPosition=center;verticalLabelPosition=top;align=center;verticalAlign=bottom;spacingLeft=2;fontFamily=Helvetica;fontSize=12;resizable=0;container=0;noLabel=1;" parent="VmBpd-jAXGRa_ZSsbWtE-52" vertex="1">
          <mxGeometry x="105" width="30" height="10" as="geometry" />
        </mxCell>
        <mxCell id="VmBpd-jAXGRa_ZSsbWtE-59" value="Output:&lt;br&gt;&lt;br&gt;List of QC derivatives (fig inside)&lt;br&gt;Dict as Simple metric&lt;br&gt;Str about artifacts" style="html=1;dashed=0;fontFamily=Helvetica;fontSize=12;fontColor=rgb(0, 0, 0);align=center;strokeColor=rgb(0, 0, 0);fillColor=rgb(255, 255, 255);" parent="1" vertex="1">
          <mxGeometry x="780" y="520" width="200" height="80" as="geometry" />
        </mxCell>
        <mxCell id="VmBpd-jAXGRa_ZSsbWtE-60" value="" style="group" parent="1" vertex="1" connectable="0">
          <mxGeometry x="480" y="590" width="260" height="80" as="geometry" />
        </mxCell>
        <mxCell id="VmBpd-jAXGRa_ZSsbWtE-61" value="Save data of high frequncy (muscle) &lt;br&gt;artifacts over threshold&amp;nbsp;in dictionary&lt;br style=&quot;border-color: var(--border-color);&quot;&gt;&lt;b style=&quot;border-color: var(--border-color);&quot;&gt;&lt;i style=&quot;border-color: var(--border-color);&quot;&gt;make_simple_metric_muscle()&lt;/i&gt;&lt;/b&gt;" style="html=1;align=center;verticalAlign=middle;rounded=1;absoluteArcSize=1;arcSize=25;dashed=0;fontFamily=Helvetica;fontSize=12;whiteSpace=wrap;container=0;noLabel=0;imageAlign=center;" parent="VmBpd-jAXGRa_ZSsbWtE-60" vertex="1">
          <mxGeometry x="10" width="240" height="80" as="geometry" />
        </mxCell>
        <mxCell id="VmBpd-jAXGRa_ZSsbWtE-62" value="pinOut 1" style="fontStyle=0;labelPosition=right;verticalLabelPosition=middle;align=left;verticalAlign=middle;spacingLeft=2;fontFamily=Helvetica;fontSize=12;resizable=0;container=0;noLabel=1;" parent="VmBpd-jAXGRa_ZSsbWtE-60" vertex="1">
          <mxGeometry x="250" y="25" width="10" height="30" as="geometry" />
        </mxCell>
        <mxCell id="VmBpd-jAXGRa_ZSsbWtE-63" value="pinIn 2" style="fontStyle=0;labelPosition=left;verticalLabelPosition=middle;align=right;verticalAlign=middle;spacingLeft=2;fontFamily=Helvetica;fontSize=12;flipH=0;resizable=0;container=0;noLabel=1;" parent="VmBpd-jAXGRa_ZSsbWtE-60" vertex="1">
          <mxGeometry y="25" width="10" height="30" as="geometry" />
        </mxCell>
        <mxCell id="VmBpd-jAXGRa_ZSsbWtE-67" value="" style="ellipse;html=1;shape=endState;fillColor=strokeColor;" parent="1" vertex="1">
          <mxGeometry x="595" y="710" width="30" height="30" as="geometry" />
        </mxCell>
        <mxCell id="VmBpd-jAXGRa_ZSsbWtE-68" value="" style="edgeStyle=orthogonalEdgeStyle;rounded=0;orthogonalLoop=1;jettySize=auto;html=1;" parent="1" source="VmBpd-jAXGRa_ZSsbWtE-61" target="VmBpd-jAXGRa_ZSsbWtE-67" edge="1">
          <mxGeometry relative="1" as="geometry" />
        </mxCell>
        <mxCell id="VmBpd-jAXGRa_ZSsbWtE-69" value="" style="edgeStyle=orthogonalEdgeStyle;rounded=0;orthogonalLoop=1;jettySize=auto;html=1;" parent="1" source="VmBpd-jAXGRa_ZSsbWtE-53" target="VmBpd-jAXGRa_ZSsbWtE-61" edge="1">
          <mxGeometry relative="1" as="geometry" />
        </mxCell>
        <mxCell id="VmBpd-jAXGRa_ZSsbWtE-70" style="edgeStyle=orthogonalEdgeStyle;rounded=0;orthogonalLoop=1;jettySize=auto;html=1;entryX=0;entryY=0.5;entryDx=0;entryDy=0;" parent="1" source="VmBpd-jAXGRa_ZSsbWtE-46" target="VmBpd-jAXGRa_ZSsbWtE-63" edge="1">
          <mxGeometry relative="1" as="geometry">
            <Array as="points">
              <mxPoint x="460" y="360" />
              <mxPoint x="460" y="630" />
            </Array>
          </mxGeometry>
        </mxCell>
        <mxCell id="VmBpd-jAXGRa_ZSsbWtE-71" style="edgeStyle=orthogonalEdgeStyle;rounded=0;orthogonalLoop=1;jettySize=auto;html=1;entryX=0;entryY=0.25;entryDx=0;entryDy=0;" parent="1" source="VmBpd-jAXGRa_ZSsbWtE-54" target="VmBpd-jAXGRa_ZSsbWtE-59" edge="1">
          <mxGeometry relative="1" as="geometry" />
        </mxCell>
        <mxCell id="VmBpd-jAXGRa_ZSsbWtE-72" style="edgeStyle=orthogonalEdgeStyle;rounded=0;orthogonalLoop=1;jettySize=auto;html=1;entryX=0;entryY=0.75;entryDx=0;entryDy=0;" parent="1" source="VmBpd-jAXGRa_ZSsbWtE-62" target="VmBpd-jAXGRa_ZSsbWtE-59" edge="1">
          <mxGeometry relative="1" as="geometry" />
        </mxCell>
        <mxCell id="oMiTmnscvnVRxevsy5Wp-3" style="edgeStyle=orthogonalEdgeStyle;rounded=0;orthogonalLoop=1;jettySize=auto;html=1;entryX=1;entryY=0.5;entryDx=0;entryDy=0;" parent="1" source="oMiTmnscvnVRxevsy5Wp-1" target="oMiTmnscvnVRxevsy5Wp-5" edge="1">
          <mxGeometry relative="1" as="geometry" />
        </mxCell>
        <mxCell id="oMiTmnscvnVRxevsy5Wp-4" value="True" style="edgeLabel;html=1;align=center;verticalAlign=middle;resizable=0;points=[];" parent="oMiTmnscvnVRxevsy5Wp-3" vertex="1" connectable="0">
          <mxGeometry x="-0.375" y="-3" relative="1" as="geometry">
            <mxPoint as="offset" />
          </mxGeometry>
        </mxCell>
        <mxCell id="oMiTmnscvnVRxevsy5Wp-12" value="False" style="edgeStyle=orthogonalEdgeStyle;rounded=0;orthogonalLoop=1;jettySize=auto;html=1;" parent="1" source="oMiTmnscvnVRxevsy5Wp-1" target="oMiTmnscvnVRxevsy5Wp-10" edge="1">
          <mxGeometry relative="1" as="geometry">
            <Array as="points">
              <mxPoint x="600" y="-240" />
              <mxPoint x="600" y="-240" />
            </Array>
          </mxGeometry>
        </mxCell>
        <mxCell id="oMiTmnscvnVRxevsy5Wp-1" value="Noise frequencies &lt;br&gt;calculated by PSD?" style="rhombus;whiteSpace=wrap;html=1;fontSize=12;" parent="1" vertex="1">
          <mxGeometry x="490" y="-395" width="220" height="120" as="geometry" />
        </mxCell>
        <mxCell id="oMiTmnscvnVRxevsy5Wp-6" style="edgeStyle=orthogonalEdgeStyle;rounded=0;orthogonalLoop=1;jettySize=auto;html=1;" parent="1" source="oMiTmnscvnVRxevsy5Wp-5" edge="1">
          <mxGeometry relative="1" as="geometry">
            <mxPoint x="490" as="targetPoint" />
            <Array as="points">
              <mxPoint x="230" y="-80" />
              <mxPoint x="490" y="-80" />
            </Array>
          </mxGeometry>
        </mxCell>
        <mxCell id="oMiTmnscvnVRxevsy5Wp-5" value="Input:&lt;br&gt;Noise frequencies&lt;br style=&quot;border-color: var(--border-color);&quot;&gt;&lt;span style=&quot;&quot;&gt;detected by PSD_QC&lt;/span&gt;" style="rounded=0;whiteSpace=wrap;html=1;" parent="1" vertex="1">
          <mxGeometry x="150" y="-365" width="200" height="60" as="geometry" />
        </mxCell>
        <mxCell id="oMiTmnscvnVRxevsy5Wp-7" value="" style="group" parent="1" vertex="1" connectable="0">
          <mxGeometry x="480" y="-210" width="240" height="100" as="geometry" />
        </mxCell>
        <mxCell id="oMiTmnscvnVRxevsy5Wp-8" value="Calculate average PSD&amp;nbsp;&lt;br&gt;Fing noisy frequncies in average PSD&lt;br&gt;&lt;br&gt;&lt;b&gt;find_powerline_noise_short&lt;/b&gt;&lt;i&gt;&lt;b&gt;()&lt;/b&gt;&lt;/i&gt;" style="html=1;align=center;verticalAlign=middle;rounded=1;absoluteArcSize=1;arcSize=25;dashed=0;fontFamily=Helvetica;fontSize=12;whiteSpace=wrap;container=0;noLabel=0;imageAlign=center;" parent="oMiTmnscvnVRxevsy5Wp-7" vertex="1">
          <mxGeometry y="10" width="240" height="80" as="geometry" />
        </mxCell>
        <mxCell id="oMiTmnscvnVRxevsy5Wp-9" value="pinOut 2" style="fontStyle=0;labelPosition=center;verticalLabelPosition=bottom;align=center;verticalAlign=top;spacingLeft=2;fontFamily=Helvetica;fontSize=12;resizable=0;container=0;noLabel=1;" parent="oMiTmnscvnVRxevsy5Wp-7" vertex="1">
          <mxGeometry x="105" y="90" width="30" height="10" as="geometry" />
        </mxCell>
        <mxCell id="oMiTmnscvnVRxevsy5Wp-10" value="pinIn 1" style="fontStyle=0;labelPosition=center;verticalLabelPosition=top;align=center;verticalAlign=bottom;spacingLeft=2;fontFamily=Helvetica;fontSize=12;resizable=0;container=0;noLabel=1;" parent="oMiTmnscvnVRxevsy5Wp-7" vertex="1">
          <mxGeometry x="105" width="30" height="10" as="geometry" />
        </mxCell>
        <mxCell id="oMiTmnscvnVRxevsy5Wp-14" value="" style="edgeStyle=orthogonalEdgeStyle;rounded=0;orthogonalLoop=1;jettySize=auto;html=1;" parent="1" source="oMiTmnscvnVRxevsy5Wp-9" target="yhwz2y4raJEEbXIZIOFM-8" edge="1">
          <mxGeometry relative="1" as="geometry" />
        </mxCell>
      </root>
    </mxGraphModel>
  </diagram>
</mxfile>
